<?xml version="1.0" encoding="UTF-8" standalone="no"?>
<svg
   xmlns:dc="http://purl.org/dc/elements/1.1/"
   xmlns:cc="http://creativecommons.org/ns#"
   xmlns:rdf="http://www.w3.org/1999/02/22-rdf-syntax-ns#"
   xmlns:svg="http://www.w3.org/2000/svg"
   xmlns="http://www.w3.org/2000/svg"
   version="1.1"
   id="svg2"
   viewBox="0 0 1062.9921 708.66142"
   height="200mm"
   width="300mm">
  <defs
     id="defs4" />
  <metadata
     id="metadata7">
    <rdf:RDF>
      <cc:Work
         rdf:about="">
        <dc:format>image/svg+xml</dc:format>
        <dc:type
           rdf:resource="http://purl.org/dc/dcmitype/StillImage" />
        <dc:title></dc:title>
      </cc:Work>
    </rdf:RDF>
  </metadata>
  <g
     style="display:none"
     transform="translate(0,-343.70079)"
     id="layer1">
    <path
       id="path4334"
       d="m 343.77216,920.82892 c 13.92363,13.7252 14.099,36.13441 0.39189,50.07585 -13.70711,13.94144 -36.11606,14.14591 -50.07529,0.45693 L 177.27551,853.7539 59.980067,971.61589 C 49.88222,981.31625 35.018923,984.16022 22.053298,978.87287 9.0876715,973.58552 0.4517963,961.15863 0.01708045,947.16311 0.0315304,852.33351 0.00964667,757.50356 8.0072477e-5,662.67384 -0.02694239,649.96276 6.7568127,638.21108 17.777564,631.87742 c 11.02075,-6.33366 24.589775,-6.27879 35.558935,0.14381 10.969161,6.4226 17.657638,18.22878 17.527796,30.93922 l 0.270734,191.39339 C 136.76347,798.95997 223.5057,705.78219 293.77262,637.61374 c 13.55802,-13.63416 35.51567,-13.96715 49.48088,-0.75038 13.96522,13.21677 14.84101,35.15948 1.97356,49.44721 L 226.73604,804.90649 Z"
       style="fill:#000000;fill-opacity:1;stroke:#000000;stroke-opacity:1" />
    <path
       style="fill:#000000;fill-opacity:1;stroke:#000000;stroke-opacity:1"
       d="m 414.76341,637.594 c -10.09785,-9.70036 -24.96114,-12.54433 -37.92677,-7.25698 -12.96562,5.28735 -21.6015,17.71424 -22.03622,31.70976 0.0144,94.8296 -0.007,189.65955 -0.017,284.48927 -0.027,12.71108 6.75674,24.46276 17.77749,30.79642 11.02075,6.33366 24.58977,6.27879 35.55893,-0.14381 10.96916,-6.4226 17.65764,-18.22878 17.5278,-30.93922 l 0.27073,-191.39339 223.21574,217.30742 c 10.09785,9.70036 24.96114,12.54433 37.92677,7.25698 12.96562,-5.28735 21.6015,-17.71424 22.03622,-31.70976 -0.0144,-94.8296 0.007,-189.65955 0.017,-284.48927 0.027,-12.71108 -6.75674,-24.46276 -17.77749,-30.79642 -11.02075,-6.33366 -24.58977,-6.27879 -35.55893,0.14381 -10.96916,6.4226 -17.65764,18.22878 -17.5278,30.93922 l -0.27073,191.39339 C 560.81096,785.29227 488.03525,711.21976 414.76341,637.594 Z"
       id="path4384" />
    <path
       id="path4386"
       d="m 1003.2569,971.59615 c 13.5581,13.63416 35.5157,13.96715 49.4809,0.75038 13.9652,-13.21677 14.841,-35.15948 1.9736,-49.44721 L 936.22036,804.3034 1053.2565,688.38097 c 13.9236,-13.7252 14.099,-36.13441 0.3919,-50.07585 -13.7071,-13.94144 -36.1161,-14.14591 -50.0753,-0.45693 L 886.46897,755.45599 769.36482,637.84819 c -13.9592,-13.68898 -36.3682,-13.48451 -50.0753,0.45693 -13.7071,13.94144 -13.5317,36.35065 0.3919,50.07585 L 836.71751,804.3034 718.22652,922.89932 c -12.8674,14.28773 -11.9916,36.23044 1.9736,49.44721 13.9652,13.21677 35.9228,12.88378 49.4809,-0.75038 36.51028,-35.41995 77.46859,-77.59188 116.78792,-117.7072 39.3194,40.11532 80.27768,82.28725 116.78796,117.7072 z"
       style="fill:#000000;fill-opacity:1;stroke:#000000;stroke-opacity:1" />
    <path
       id="path4412"
       d="m 672.91406,450.13243 c -24.12574,0.0924 -48.1269,9.96565 -65.5625,29.28711 -32.81991,36.36977 -29.95697,92.45497 6.39649,125.29297 36.35347,32.83802 92.44079,30.00315 125.29687,-6.33399 l 0.11914,-0.13085 c 32.78379,-36.40238 29.86462,-92.48526 -6.52148,-125.28711 -17.05599,-15.37588 -38.4411,-22.90966 -59.72852,-22.82813 z m 0.18946,53.30078 c 8.5005,-0.0325 17.0388,2.97533 23.8496,9.11524 14.52972,13.09846 15.69671,35.49307 2.60547,50.02929 l -0.0488,0.0527 c -13.12011,14.51017 -35.51652,15.64219 -50.03321,2.52929 -14.51669,-13.11289 -15.66036,-35.50805 -2.55468,-50.03125 6.96239,-7.71545 16.54773,-11.65841 26.18164,-11.69531 z"
       style="fill:#000000;fill-opacity:1;stroke:#000000;stroke-opacity:1" />
  </g>
  <g
     id="g4437"
     transform="translate(0,-343.70079)"
     style="display:inline">
    <path
       id="path4439"
       transform="translate(0,343.70079)"
       d="M 671.97461 153.66602 C 647.84887 153.75842 623.84771 163.63166 606.41211 182.95312 C 573.5922 219.3229 576.45513 275.40809 612.80859 308.24609 C 620.53294 315.22348 629.15009 320.58419 638.24414 324.36133 L 637.97852 511.20117 C 560.81033 441.59202 488.03551 367.51834 414.76367 293.89258 C 409.06942 288.42247 401.85831 285.1368 394.32812 284.25586 C 382.9265 281.82062 370.57957 285.05653 361.77344 293.91211 C 291.50652 362.08056 204.76321 455.25847 139.13477 510.65234 L 138.86523 319.25977 C 138.99507 306.54933 132.3051 294.74291 121.33594 288.32031 C 110.36678 281.89771 96.79809 281.84212 85.777344 288.17578 C 74.756593 294.50944 67.97298 306.26158 68 318.97266 C 68.0096 413.80238 68.032028 508.63329 68.017578 603.46289 C 68.452293 617.45841 77.087108 629.88453 90.052734 635.17188 C 103.01836 640.45922 117.88262 637.61638 127.98047 627.91602 L 245.27539 510.05273 L 362.08789 627.66016 C 367.94368 633.40258 375.28804 636.69048 382.85156 637.55469 C 391.36493 639.36349 400.38626 638.016 408.11914 633.48828 C 419.0883 627.06568 425.77828 615.25927 425.64844 602.54883 L 425.91797 411.1543 L 649.13477 628.46289 C 656.19683 635.24697 665.58871 638.66377 675.0332 638.30469 C 684.64495 638.71483 694.38139 635.23573 701.68164 627.89453 C 738.19192 592.47458 779.14942 550.30282 818.46875 510.1875 C 857.78815 550.30282 898.74753 592.47458 935.25781 627.89453 C 948.81591 641.52869 970.77308 641.86325 984.73828 628.64648 C 998.70348 615.42971 999.57834 593.48695 986.71094 579.19922 L 868.2207 460.60352 L 985.25586 344.67969 C 999.17946 330.95449 999.35554 308.54496 985.64844 294.60352 C 971.94134 280.66208 949.53147 280.4575 935.57227 294.14648 L 818.46875 411.75586 L 722.62109 315.49414 C 728.17633 311.66183 733.38264 307.13532 738.10547 301.91211 L 738.22461 301.78125 C 771.0084 265.37887 768.08923 209.29599 731.70312 176.49414 C 714.64714 161.11826 693.26203 153.58449 671.97461 153.66602 z M 672.16406 206.9668 C 680.66456 206.9343 689.20287 209.94212 696.01367 216.08203 C 710.54339 229.18049 711.71038 251.57511 698.61914 266.11133 L 698.57031 266.16406 C 685.4502 280.67423 663.0538 281.80626 648.53711 268.69336 C 634.02042 255.58047 632.87674 233.18531 645.98242 218.66211 C 652.94481 210.94666 662.53015 207.0037 672.16406 206.9668 z M 354.79492 401.0918 C 354.7939 440.9569 354.79438 480.82238 354.78906 520.6875 L 294.73633 461.20508 L 354.79492 401.0918 z M 709.10938 401.56055 L 768.7168 460.60352 L 709.10156 520.27148 C 709.10264 480.70103 709.1041 441.13102 709.10938 401.56055 z "
       style="fill:#000000;fill-opacity:1;stroke:#000000;stroke-opacity:1" />
  </g>
</svg>
